<svg width="1067" height="122" viewBox="0 0 1067 122" fill="none" xmlns="http://www.w3.org/2000/svg">
<g opacity="0.5">
<path d="M413.791 0.25L0.188205 120.795" stroke="#B3B3B3" stroke-width="0.5"/>
<path d="M419.914 0.25L53.2825 120.795" stroke="#B3B3B3" stroke-width="0.5"/>
<path d="M426.037 0.25L99.2145 120.795" stroke="#B3B3B3" stroke-width="0.5"/>
<path d="M432.16 0.25L139.691 120.795" stroke="#B3B3B3" stroke-width="0.5"/>
<path d="M438.283 0.25L175.923 120.795" stroke="#B3B3B3" stroke-width="0.5"/>
<path d="M444.406 0.25L208.797 120.795" stroke="#B3B3B3" stroke-width="0.5"/>
<path d="M450.529 0.25L238.976 120.795" stroke="#B3B3B3" stroke-width="0.5"/>
<path d="M456.652 0.25L266.968 120.795" stroke="#B3B3B3" stroke-width="0.5"/>
<path d="M462.775 0.25L293.169 120.795" stroke="#B3B3B3" stroke-width="0.5"/>
<path d="M468.897 0.25L317.893 120.795" stroke="#B3B3B3" stroke-width="0.5"/>
<path d="M475.021 0.25L341.395 120.795" stroke="#B3B3B3" stroke-width="0.5"/>
<path d="M481.143 0.25L363.881 120.795" stroke="#B3B3B3" stroke-width="0.5"/>
<path d="M487.266 0.25L385.526 120.795" stroke="#B3B3B3" stroke-width="0.5"/>
<path d="M493.389 0.25L406.475 120.795" stroke="#B3B3B3" stroke-width="0.5"/>
<path d="M499.512 0.25L426.856 120.795" stroke="#B3B3B3" stroke-width="0.5"/>
<path d="M505.635 0.25L446.778 120.795" stroke="#B3B3B3" stroke-width="0.5"/>
<path d="M511.758 0.25L466.338 120.795" stroke="#B3B3B3" stroke-width="0.5"/>
<path d="M517.881 0.25L485.627 120.795" stroke="#B3B3B3" stroke-width="0.5"/>
<path d="M524.004 0.25L504.726 120.795" stroke="#B3B3B3" stroke-width="0.5"/>
<path d="M530.127 0.25L523.713 120.795" stroke="#B3B3B3" stroke-width="0.5"/>
<path d="M536.25 0.25L542.663 120.795" stroke="#B3B3B3" stroke-width="0.5"/>
<path d="M542.373 0.25L561.65 120.795" stroke="#B3B3B3" stroke-width="0.5"/>
<path d="M548.496 0.25L580.749 120.795" stroke="#B3B3B3" stroke-width="0.5"/>
<path d="M554.618 0.25L600.038 120.795" stroke="#B3B3B3" stroke-width="0.5"/>
<path d="M560.741 0.25L619.599 120.795" stroke="#B3B3B3" stroke-width="0.5"/>
<path d="M566.864 0.25L639.52 120.795" stroke="#B3B3B3" stroke-width="0.5"/>
<path d="M572.987 0.25L659.901 120.795" stroke="#B3B3B3" stroke-width="0.5"/>
<path d="M579.11 0.25L680.851 120.795" stroke="#B3B3B3" stroke-width="0.5"/>
<path d="M585.233 0.25L702.495 120.795" stroke="#B3B3B3" stroke-width="0.5"/>
<path d="M591.356 0.25L724.982 120.795" stroke="#B3B3B3" stroke-width="0.5"/>
<path d="M597.479 0.25L748.483 120.795" stroke="#B3B3B3" stroke-width="0.5"/>
<path d="M603.602 0.25L773.207 120.795" stroke="#B3B3B3" stroke-width="0.5"/>
<path d="M609.725 0.25L799.408 120.795" stroke="#B3B3B3" stroke-width="0.5"/>
<path d="M615.848 0.25L827.401 120.795" stroke="#B3B3B3" stroke-width="0.5"/>
<path d="M621.97 0.25L857.58 120.795" stroke="#B3B3B3" stroke-width="0.5"/>
<path d="M628.094 0.25L890.454 120.795" stroke="#B3B3B3" stroke-width="0.5"/>
<path d="M634.216 0.25L926.686 120.795" stroke="#B3B3B3" stroke-width="0.5"/>
<path d="M640.339 0.25L967.162 120.795" stroke="#B3B3B3" stroke-width="0.5"/>
<path d="M646.462 0.25L1013.09 120.795" stroke="#B3B3B3" stroke-width="0.5"/>
<path d="M652.585 0.25L1066.19 120.795" stroke="#B3B3B3" stroke-width="0.5"/>
<path d="M413.791 0.25H652.585" stroke="#B3B3B3" stroke-width="0.5"/>
<path d="M413.791 0.25H652.585" stroke="#B3B3B3" stroke-width="0.5"/>
<path d="M413.791 0.25H652.585" stroke="#B3B3B3" stroke-width="0.5"/>
<path d="M413.791 0.25H652.585" stroke="#B3B3B3" stroke-width="0.5"/>
<path d="M413.791 0.25H652.585" stroke="#B3B3B3" stroke-width="0.5"/>
<path d="M413.791 0.25H652.585" stroke="#B3B3B3" stroke-width="0.5"/>
<path d="M413.79 0.25H652.586" stroke="#B3B3B3" stroke-width="0.5"/>
<path d="M413.789 0.250977H652.588" stroke="#B3B3B3" stroke-width="0.5"/>
<path d="M413.785 0.251953H652.592" stroke="#B3B3B3" stroke-width="0.5"/>
<path d="M413.777 0.253906H652.599" stroke="#B3B3B3" stroke-width="0.5"/>
<path d="M413.761 0.258789H652.615" stroke="#B3B3B3" stroke-width="0.5"/>
<path d="M413.733 0.26709H652.644" stroke="#B3B3B3" stroke-width="0.5"/>
<path d="M413.683 0.28125H652.693" stroke="#B3B3B3" stroke-width="0.5"/>
<path d="M413.602 0.305176H652.774" stroke="#B3B3B3" stroke-width="0.5"/>
<path d="M413.474 0.342773H652.903" stroke="#B3B3B3" stroke-width="0.5"/>
<path d="M413.276 0.400391H653.1" stroke="#B3B3B3" stroke-width="0.5"/>
<path d="M412.982 0.48584H653.394" stroke="#B3B3B3" stroke-width="0.5"/>
<path d="M412.555 0.610352H653.822" stroke="#B3B3B3" stroke-width="0.5"/>
<path d="M411.946 0.788086H654.43" stroke="#B3B3B3" stroke-width="0.5"/>
<path d="M411.097 1.03516H655.279" stroke="#B3B3B3" stroke-width="0.5"/>
<path d="M409.933 1.37402H656.443" stroke="#B3B3B3" stroke-width="0.5"/>
<path d="M408.363 1.83203H658.014" stroke="#B3B3B3" stroke-width="0.5"/>
<path d="M406.274 2.44141H660.103" stroke="#B3B3B3" stroke-width="0.5"/>
<path d="M403.53 3.24072H662.847" stroke="#B3B3B3" stroke-width="0.5"/>
<path d="M399.968 4.27881H666.408" stroke="#B3B3B3" stroke-width="0.5"/>
<path d="M395.396 5.61133H670.981" stroke="#B3B3B3" stroke-width="0.5"/>
<path d="M389.584 7.30518H676.792" stroke="#B3B3B3" stroke-width="0.5"/>
<path d="M382.265 9.43848H684.112" stroke="#B3B3B3" stroke-width="0.5"/>
<path d="M373.125 12.1025H693.252" stroke="#B3B3B3" stroke-width="0.5"/>
<path d="M361.802 15.4023H704.575" stroke="#B3B3B3" stroke-width="0.5"/>
<path d="M347.877 19.4609H718.5" stroke="#B3B3B3" stroke-width="0.5"/>
<path d="M330.87 24.4175H735.506" stroke="#B3B3B3" stroke-width="0.5"/>
<path d="M310.234 30.4316H756.143" stroke="#B3B3B3" stroke-width="0.5"/>
<path d="M285.343 37.6865H781.034" stroke="#B3B3B3" stroke-width="0.5"/>
<path d="M255.49 46.3867H810.886" stroke="#B3B3B3" stroke-width="0.5"/>
<path d="M219.878 56.7666H846.498" stroke="#B3B3B3" stroke-width="0.5"/>
<path d="M177.608 69.0859H888.768" stroke="#B3B3B3" stroke-width="0.5"/>
<path d="M127.674 83.6392H938.702" stroke="#B3B3B3" stroke-width="0.5"/>
<path d="M68.9521 100.754H997.424" stroke="#B3B3B3" stroke-width="0.5"/>
<path d="M0.188232 120.795H1066.19" stroke="#B3B3B3" stroke-width="0.5"/>
</g>
</svg>
