<svg width="98" height="60" viewBox="0 0 98 60" fill="none" xmlns="http://www.w3.org/2000/svg">
<path d="M55.7419 7.00679L95.7789 52.4525" stroke="#00FFFF" stroke-width="3.07971" stroke-linecap="round"/>
<path d="M55.1445 8.41231C55.5529 8.40762 55.9427 8.24089 56.2281 7.94881C56.5136 7.65674 56.6713 7.26323 56.6666 6.85486C56.6619 6.44649 56.4952 6.05671 56.2031 5.77127C55.911 5.48583 55.5175 5.32811 55.1091 5.33281C54.216 5.34307 53.3229 5.35334 52.4298 5.3636C36.3537 5.54838 20.2776 5.73317 4.20152 5.91795C3.30842 5.92822 2.41529 5.93848 1.52218 5.94875C1.11381 5.95344 0.724033 6.12017 0.438591 6.41225C0.153149 6.70432 -0.00457012 7.09783 0.000123765 7.5062C0.00481765 7.91457 0.17154 8.30434 0.46362 8.58979C0.7557 8.87523 1.14921 9.03295 1.55757 9.02825C2.45069 9.01799 3.34381 9.00772 4.23692 8.99746C20.313 8.81267 36.3891 8.62789 52.4652 8.44311C53.3583 8.43284 54.2514 8.42258 55.1445 8.41231Z" fill="#00FFFF"/>
</svg>
