<svg width="81" height="40" viewBox="0 0 81 40" fill="none" xmlns="http://www.w3.org/2000/svg">
<path d="M22.5694 1.67372L1.60398 38.259" stroke="#00FFFF" stroke-width="3.07971" stroke-linecap="round"/>
<path d="M23.1619 0.000184059C22.7535 0.000184059 22.3618 0.162418 22.073 0.451197C21.7842 0.739976 21.622 1.13164 21.622 1.54004C21.622 1.94843 21.7842 2.3401 22.073 2.62888C22.3618 2.91766 22.7535 3.07989 23.1619 3.07989C24.0858 3.07989 25.0097 3.07989 25.9336 3.07989C42.564 3.07989 59.1945 3.07989 75.8249 3.07989C76.7488 3.07989 77.6727 3.07989 78.5966 3.07989C79.005 3.07989 79.3967 2.91766 79.6855 2.62888C79.9743 2.3401 80.1365 1.94843 80.1365 1.54004C80.1365 1.13164 79.9743 0.739976 79.6855 0.451197C79.3967 0.162418 79.005 0.000184059 78.5966 0.000184059C77.6727 0.000184059 76.7488 0.000184059 75.8249 0.000184059C59.1945 0.000184059 42.564 0.000184059 25.9336 0.000184059C25.0097 0.000184059 24.0858 0.000184059 23.1619 0.000184059Z" fill="#00FFFF"/>
</svg>
