<svg width="79" height="40" viewBox="0 0 79 40" fill="none" xmlns="http://www.w3.org/2000/svg">
<path d="M59.1305 1.67372L77.4509 38.259" stroke="#00FFFF" stroke-width="3.07971" stroke-linecap="round"/>
<path d="M58.5145 3.07989C58.9229 3.07989 59.3146 2.91766 59.6034 2.62888C59.8921 2.3401 60.0544 1.94843 60.0544 1.54004C60.0544 1.13164 59.8921 0.739976 59.6034 0.451197C59.3146 0.162418 58.9229 0.000184059 58.5145 0.000184059C57.5649 0.000184059 56.6154 0.000184059 55.6658 0.000184059C38.5734 0.000184059 21.481 0.000184059 4.38862 0.000184059C3.43904 0.000184059 2.48947 0.000184059 1.53989 0.000184059C1.1315 0.000184059 0.73983 0.162418 0.45105 0.451197C0.16227 0.739976 3.8147e-05 1.13164 3.8147e-05 1.54004C3.8147e-05 1.94843 0.16227 2.3401 0.45105 2.62888C0.73983 2.91766 1.1315 3.07989 1.53989 3.07989C2.48947 3.07989 3.43904 3.07989 4.38862 3.07989C21.481 3.07989 38.5734 3.07989 55.6658 3.07989C56.6154 3.07989 57.5649 3.07989 58.5145 3.07989Z" fill="#00FFFF"/>
</svg>
