<svg width="42" height="32" viewBox="0 0 42 32" fill="none" xmlns="http://www.w3.org/2000/svg">
<path d="M35.5373 2.65931C32.8772 1.41963 29.9972 0.519865 26.9971 0C26.9443 0.000751215 26.894 0.0223118 26.8571 0.0599849C26.4971 0.719814 26.077 1.57959 25.797 2.23942C22.6149 1.75985 19.3789 1.75985 16.1968 2.23942C15.9168 1.5596 15.4968 0.719814 15.1167 0.0599849C15.0967 0.0199952 15.0367 0 14.9767 0C11.9767 0.519865 9.11658 1.41963 6.4365 2.65931C6.4165 2.65931 6.3965 2.67931 6.3765 2.6993C0.936354 10.8372 -0.563687 18.7551 0.176333 26.5931C0.176333 26.6331 0.196334 26.6731 0.236335 26.6931C3.83643 29.3324 7.29653 30.932 10.7166 31.9917C10.7766 32.0117 10.8366 31.9917 10.8566 31.9517C11.6566 30.852 12.3767 29.6923 12.9967 28.4726C13.0367 28.3926 12.9967 28.3127 12.9167 28.2927C11.7767 27.8528 10.6966 27.3329 9.63659 26.7331C9.55659 26.6931 9.55659 26.5731 9.61659 26.5131C9.8366 26.3532 10.0566 26.1732 10.2766 26.0133C10.3166 25.9733 10.3766 25.9733 10.4166 25.9933C17.2968 29.1325 24.717 29.1325 31.5172 25.9933C31.5572 25.9733 31.6172 25.9733 31.6572 26.0133C31.8772 26.1932 32.0972 26.3532 32.3172 26.5331C32.3972 26.5931 32.3972 26.7131 32.2972 26.7531C31.2572 27.3729 30.1572 27.8728 29.0171 28.3127C28.9371 28.3327 28.9171 28.4326 28.9371 28.4926C29.5771 29.7123 30.2972 30.872 31.0772 31.9717C31.1372 31.9917 31.1972 32.0117 31.2572 31.9917C34.6973 30.932 38.1574 29.3324 41.7575 26.6931C41.7975 26.6731 41.8175 26.6331 41.8175 26.5931C42.6975 17.5355 40.3574 9.67749 35.6173 2.6993C35.5973 2.67931 35.5773 2.65931 35.5373 2.65931ZM14.0367 21.8144C11.9767 21.8144 10.2566 19.9148 10.2566 17.5754C10.2566 15.2361 11.9367 13.3365 14.0367 13.3365C16.1568 13.3365 17.8368 15.2561 17.8168 17.5754C17.8168 19.9148 16.1368 21.8144 14.0367 21.8144ZM27.9771 21.8144C25.917 21.8144 24.197 19.9148 24.197 17.5754C24.197 15.2361 25.877 13.3365 27.9771 13.3365C30.0972 13.3365 31.7772 15.2561 31.7572 17.5754C31.7572 19.9148 30.0972 21.8144 27.9771 21.8144Z" fill="#FF4DEF"/>
</svg>
