<svg width="41" height="40" viewBox="0 0 41 40" fill="none" xmlns="http://www.w3.org/2000/svg">
<path d="M17.3011 38.5348V37.0683L16.9224 36.9709C15.6125 36.633 15.1203 36.4818 14.4056 36.198C13.3999 35.7986 12.399 35.2992 11.5737 34.7856L10.9348 34.388L9.84138 35.4786L8.74801 36.5695L6.41324 34.2542C5.1291 32.9807 4.05899 31.9284 4.03479 31.9133C4.01059 31.8982 4.48043 31.3979 5.07819 30.7985C5.67594 30.1992 6.16528 29.6803 6.16528 29.6451C6.16528 29.6099 6.01976 29.3541 5.84188 29.0759C5.02476 27.799 4.06653 25.493 3.7026 23.9278L3.54546 23.2524H0.641846V16.5706H2.06992C3.13564 16.5706 3.50649 16.5423 3.53131 16.4594C3.54954 16.3965 3.63314 16.0473 3.71705 15.6799C4.0703 14.132 5.01596 11.8607 5.84943 10.557L6.18005 10.0397L5.19321 9.05155L4.20607 8.06154L6.56598 5.70279L8.92589 3.34562L9.89732 4.31363L10.8684 5.28007L11.6126 4.83284C13.3651 3.77997 14.7645 3.21047 16.9239 2.67178L17.3026 2.57749V0H23.9776L24.0024 1.26093L24.0269 2.52155L25.0072 2.76575C26.7985 3.21267 28.6459 3.99148 30.0604 4.89287L30.6195 5.24864L31.4885 4.38466L32.3578 3.52036L34.7174 5.87911L37.0773 8.23628L36.22 9.09712L35.3626 9.95765L35.8095 10.7041C36.8152 12.3818 37.5186 14.1113 37.9271 15.9248L38.0726 16.5706H40.6418V23.2477L39.331 23.2725L38.0201 23.2971L37.9438 23.6535C37.5666 25.411 36.6238 27.6937 35.664 29.1771L35.3183 29.7114L36.2875 30.6926L37.2568 31.6735L34.8965 34.0307L32.5366 36.3894L31.5771 35.4331C31.0495 34.9069 30.5887 34.4764 30.5538 34.4764C30.519 34.4764 30.2622 34.6222 29.9837 34.8004C28.6572 35.649 26.0053 36.7176 24.5719 36.9822L23.9836 37.0906V40H17.3011V38.5348ZM22.3295 34.5634C24.861 34.3233 27.1807 33.4948 29.3313 32.0629C30.4803 31.2976 32.3999 29.3792 33.1514 28.2452C36.5616 23.0987 36.5606 16.7969 33.1492 11.6671C32.3908 10.5265 30.4718 8.60746 29.3313 7.84876C24.7969 4.83315 19.227 4.46292 14.4509 6.85969C12.8914 7.64228 11.7572 8.47106 10.4351 9.79328C8.06257 12.1668 6.72657 14.837 6.29664 18.0591C5.36167 25.0832 9.59876 31.6829 16.4547 33.8805C18.5403 34.5486 20.3159 34.7554 22.3298 34.5644L22.3295 34.5634ZM16.8997 32.2641C16.3608 32.0789 15.5798 31.7496 15.1627 31.5324L14.4072 31.137L14.3629 27.0535C14.3315 24.1588 14.3465 22.9463 14.4157 22.8891C14.4691 22.8448 14.7897 22.6914 15.1282 22.5481C15.4666 22.4048 16.2448 22.0694 16.8567 21.8026L19.7499 20.5407C20.7308 20.1146 21.6529 19.7091 21.8 19.6431C21.947 19.5771 22.8685 19.1717 23.849 18.7468C24.8296 18.3218 26.1316 17.7549 26.7442 17.4877C27.3567 17.2206 28.127 16.8877 28.4592 16.7479L29.0604 16.4933V30.197L28.4146 30.6514C27.7467 31.1229 25.9946 32.0274 25.5637 32.1252L25.3189 32.1808V20.4112L24.0492 20.9886C23.3512 21.3063 21.9782 21.9271 20.9982 22.3683C20.0183 22.8096 18.962 23.2993 18.65 23.4564L18.0843 23.7424L18.0704 28.145C18.0616 30.9909 18.0252 32.557 17.9677 32.574C17.9186 32.5884 17.4375 32.4482 16.8991 32.2641H16.8997ZM12.223 16.2733V10.4401L12.6815 10.0281C13.2601 9.50759 14.3931 8.75643 15.2272 8.33969C15.5813 8.16274 15.8919 8.01817 15.9186 8.01817C15.9453 8.01817 15.9654 10.3439 15.9654 13.1854C15.9654 16.5185 15.9968 18.3526 16.0531 18.3526C16.1015 18.3526 16.5669 18.1521 17.0877 17.907C17.6084 17.6618 18.0478 17.4616 18.0641 17.4616C18.0805 17.4616 18.5871 17.2375 19.1899 16.9638C19.7927 16.6901 20.6871 16.2856 21.1771 16.0652C21.667 15.8449 22.3399 15.542 22.6693 15.3917L23.2698 15.1189V7.14884L23.855 7.27173C24.6721 7.4427 25.9921 7.89182 26.5214 8.17877L26.967 8.41983L26.9903 12.0474L27.0135 15.6752L26.6364 15.8669C26.4296 15.9722 25.8579 16.2303 25.3658 16.4402C24.3123 16.8893 23.1793 17.3802 20.3285 18.6229C19.177 19.1258 17.7939 19.723 17.2549 19.9546C16.7159 20.1862 15.9943 20.498 15.6521 20.6498C13.8654 21.4399 12.5935 21.9887 12.4185 22.044L12.222 22.1068L12.223 16.2733Z" fill="#FFFCE2"/>
</svg>
