<svg xmlns="http://www.w3.org/2000/svg" width="36" height="40" viewBox="0 0 36 40" fill="none">
  <g clip-path="url(#clip0_678_122)">
    <path d="M18.1121 11.0156C13.1539 11.0156 9.15465 15.0234 9.15465 19.9922C9.15465 24.9609 13.1539 28.9688 18.1121 28.9688C23.0702 28.9688 27.0695 24.9609 27.0695 19.9922C27.0695 15.0234 23.0702 11.0156 18.1121 11.0156ZM18.1121 25.8281C14.908 25.8281 12.2886 23.2109 12.2886 19.9922C12.2886 16.7734 14.9002 14.1563 18.1121 14.1563C21.324 14.1563 23.9356 16.7734 23.9356 19.9922C23.9356 23.2109 21.3162 25.8281 18.1121 25.8281ZM29.5252 10.6484C29.5252 11.8125 28.5897 12.7422 27.4359 12.7422C26.2743 12.7422 25.3466 11.8047 25.3466 10.6484C25.3466 9.49219 26.2821 8.55469 27.4359 8.55469C28.5897 8.55469 29.5252 9.49219 29.5252 10.6484ZM35.4578 12.7734C35.3253 9.96875 34.686 7.48438 32.6357 5.4375C30.5932 3.39062 28.1141 2.75 25.3154 2.60938C22.431 2.44531 13.7854 2.44531 10.9009 2.60938C8.11001 2.74219 5.63093 3.38281 3.58062 5.42969C1.53032 7.47656 0.898852 9.96094 0.758527 12.7656C0.594814 15.6563 0.594814 24.3203 0.758527 27.2109C0.891056 30.0156 1.53032 32.5 3.58062 34.5469C5.63093 36.5938 8.10221 37.2344 10.9009 37.375C13.7854 37.5391 22.431 37.5391 25.3154 37.375C28.1141 37.2422 30.5932 36.6016 32.6357 34.5469C34.6782 32.5 35.3175 30.0156 35.4578 27.2109C35.6215 24.3203 35.6215 15.6641 35.4578 12.7734ZM31.7314 30.3125C31.1233 31.8438 29.9462 33.0234 28.4104 33.6406C26.1106 34.5547 20.6535 34.3438 18.1121 34.3438C15.5706 34.3438 10.1057 34.5469 7.81376 33.6406C6.28578 33.0313 5.10861 31.8516 4.49274 30.3125C3.58062 28.0078 3.79111 22.5391 3.79111 19.9922C3.79111 17.4453 3.58842 11.9688 4.49274 9.67188C5.10081 8.14063 6.27798 6.96094 7.81376 6.34375C10.1135 5.42969 15.5706 5.64062 18.1121 5.64062C20.6535 5.64062 26.1184 5.4375 28.4104 6.34375C29.9384 6.95312 31.1155 8.13281 31.7314 9.67188C32.6435 11.9766 32.433 17.4453 32.433 19.9922C32.433 22.5391 32.6435 28.0156 31.7314 30.3125Z" fill="white"/>
  </g>
  <defs>
    <clipPath id="clip0_678_122">
      <rect width="34.9254" height="40" fill="white" transform="translate(0.641602)"/>
    </clipPath>
  </defs>
</svg>