<svg width="36" height="40" viewBox="0 0 36 40" fill="none" xmlns="http://www.w3.org/2000/svg">
<g clip-path="url(#clip0_1_30)">
<path d="M18.1125 11.0156C13.1543 11.0156 9.15505 15.0234 9.15505 19.9922C9.15505 24.9609 13.1543 28.9688 18.1125 28.9688C23.0706 28.9688 27.0699 24.9609 27.0699 19.9922C27.0699 15.0234 23.0706 11.0156 18.1125 11.0156ZM18.1125 25.8281C14.9084 25.8281 12.289 23.2109 12.289 19.9922C12.289 16.7734 14.9006 14.1563 18.1125 14.1563C21.3244 14.1563 23.936 16.7734 23.936 19.9922C23.936 23.2109 21.3166 25.8281 18.1125 25.8281ZM29.5256 10.6484C29.5256 11.8125 28.5901 12.7422 27.4363 12.7422C26.2747 12.7422 25.347 11.8047 25.347 10.6484C25.347 9.49219 26.2825 8.55469 27.4363 8.55469C28.5901 8.55469 29.5256 9.49219 29.5256 10.6484ZM35.4582 12.7734C35.3257 9.96875 34.6864 7.48438 32.6361 5.4375C30.5936 3.39062 28.1145 2.75 25.3158 2.60938C22.4314 2.44531 13.7858 2.44531 10.9013 2.60938C8.11041 2.74219 5.63133 3.38281 3.58103 5.42969C1.53072 7.47656 0.899258 9.96094 0.758933 12.7656C0.59522 15.6563 0.59522 24.3203 0.758933 27.2109C0.891462 30.0156 1.53072 32.5 3.58103 34.5469C5.63133 36.5938 8.10262 37.2344 10.9013 37.375C13.7858 37.5391 22.4314 37.5391 25.3158 37.375C28.1145 37.2422 30.5936 36.6016 32.6361 34.5469C34.6786 32.5 35.3179 30.0156 35.4582 27.2109C35.6219 24.3203 35.6219 15.6641 35.4582 12.7734ZM31.7318 30.3125C31.1237 31.8438 29.9466 33.0234 28.4108 33.6406C26.111 34.5547 20.6539 34.3438 18.1125 34.3438C15.571 34.3438 10.1061 34.5469 7.81417 33.6406C6.28618 33.0313 5.10901 31.8516 4.49314 30.3125C3.58103 28.0078 3.79152 22.5391 3.79152 19.9922C3.79152 17.4453 3.58882 11.9688 4.49314 9.67188C5.10122 8.14063 6.27839 6.96094 7.81417 6.34375C10.1139 5.42969 15.571 5.64062 18.1125 5.64062C20.6539 5.64062 26.1188 5.4375 28.4108 6.34375C29.9388 6.95312 31.1159 8.13281 31.7318 9.67188C32.6439 11.9766 32.4334 17.4453 32.4334 19.9922C32.4334 22.5391 32.6439 28.0156 31.7318 30.3125Z" fill="#FFFCE2"/>
</g>
<defs>
<clipPath id="clip0_1_30">
<rect width="34.9254" height="40" fill="white" transform="translate(0.641846)"/>
</clipPath>
</defs>
</svg>
