<svg width="31" height="30" viewBox="0 0 31 30" fill="none" xmlns="http://www.w3.org/2000/svg">
<path d="M28.7857 0H2.20737C0.989509 0 0 0.970982 0 2.16295V27.8371C0 29.029 0.989509 30 2.20737 30H28.7857C30.0036 30 31 29.029 31 27.8371V2.16295C31 0.970982 30.0036 0 28.7857 0ZM9.3692 25.7143H4.77455V11.3973H9.37612V25.7143H9.3692ZM7.07187 9.44196C5.59799 9.44196 4.40781 8.28348 4.40781 6.86384C4.40781 5.4442 5.59799 4.28571 7.07187 4.28571C8.53884 4.28571 9.73594 5.4442 9.73594 6.86384C9.73594 8.29018 8.54576 9.44196 7.07187 9.44196ZM26.5922 25.7143H21.9975V18.75C21.9975 17.0893 21.9629 14.9531 19.6103 14.9531C17.2161 14.9531 16.8493 16.7612 16.8493 18.6295V25.7143H12.2547V11.3973H16.6625V13.3527H16.7248C17.3406 12.2277 18.8422 11.0424 21.0772 11.0424C25.7272 11.0424 26.5922 14.0089 26.5922 17.8661V25.7143Z" fill="#FF4DEF"/>
</svg>
