<svg xmlns="http://www.w3.org/2000/svg" width="41" height="40" viewBox="0 0 41 40" fill="none">
  <g clip-path="url(#clip0_678_126)">
    <path d="M39.8838 14.9062C40.1885 14.6641 40.6416 14.8906 40.6416 15.2734V31.25C40.6416 33.3203 38.9619 35 36.8916 35H4.3916C2.32129 35 0.641602 33.3203 0.641602 31.25V15.2812C0.641602 14.8906 1.08691 14.6719 1.39941 14.9141C3.14941 16.2734 5.46973 18 13.4385 23.7891C15.0869 24.9922 17.8682 27.5234 20.6416 27.5078C23.4307 27.5312 26.2666 24.9453 27.8525 23.7891C35.8213 18 38.1338 16.2656 39.8838 14.9062ZM20.6416 25C22.4541 25.0312 25.0635 22.7188 26.376 21.7656C36.7432 14.2422 37.5322 13.5859 39.9229 11.7109C40.376 11.3594 40.6416 10.8125 40.6416 10.2344V8.75C40.6416 6.67969 38.9619 5 36.8916 5H4.3916C2.32129 5 0.641602 6.67969 0.641602 8.75V10.2344C0.641602 10.8125 0.907227 11.3516 1.36035 11.7109C3.75098 13.5781 4.54004 14.2422 14.9072 21.7656C16.2197 22.7188 18.8291 25.0312 20.6416 25Z" fill="white"/>
  </g>
  <defs>
    <clipPath id="clip0_678_126">
      <rect width="40" height="40" fill="white" transform="translate(0.641602)"/>
    </clipPath>
  </defs>
</svg>