<svg width="41" height="30" viewBox="0 0 41 30" fill="none" xmlns="http://www.w3.org/2000/svg">
<path d="M39.884 9.90625C40.1887 9.66406 40.6418 9.89062 40.6418 10.2734V26.25C40.6418 28.3203 38.9622 30 36.8918 30H4.39185C2.32153 30 0.641846 28.3203 0.641846 26.25V10.2812C0.641846 9.89062 1.08716 9.67188 1.39966 9.91406C3.14966 11.2734 5.46997 13 13.4387 18.7891C15.0872 19.9922 17.8684 22.5234 20.6418 22.5078C23.4309 22.5312 26.2668 19.9453 27.8528 18.7891C35.8215 13 38.134 11.2656 39.884 9.90625ZM20.6418 20C22.4543 20.0312 25.0637 17.7188 26.3762 16.7656C36.7434 9.24219 37.5325 8.58594 39.9231 6.71094C40.3762 6.35937 40.6418 5.8125 40.6418 5.23438V3.75C40.6418 1.67969 38.9622 0 36.8918 0H4.39185C2.32153 0 0.641846 1.67969 0.641846 3.75V5.23438C0.641846 5.8125 0.907471 6.35156 1.3606 6.71094C3.75122 8.57812 4.54028 9.24219 14.9075 16.7656C16.22 17.7188 18.8293 20.0312 20.6418 20Z" fill="#FFFCE2"/>
</svg>
