<svg width="28" height="32" viewBox="0 0 28 32" fill="none" xmlns="http://www.w3.org/2000/svg">
<path d="M22.2143 5.01333C20.9939 3.62583 20.3212 1.84427 20.3214 0H14.8036V22.0444C14.7619 23.2377 14.2563 24.3681 13.3934 25.1973C12.5305 26.0265 11.3779 26.4896 10.1786 26.4889C7.64286 26.4889 5.53572 24.4267 5.53572 21.8667C5.53572 18.8089 8.5 16.5156 11.5536 17.4578V11.84C5.39286 11.0222 0 15.7867 0 21.8667C0 27.7867 4.92857 32 10.1607 32C15.7679 32 20.3214 27.4667 20.3214 21.8667V10.6844C22.5589 12.2842 25.2453 13.1425 28 13.1378V7.64444C28 7.64444 24.6429 7.80444 22.2143 5.01333Z" fill="#FF4DEF"/>
</svg>
