<svg width="46" height="40" viewBox="0 0 46 40" fill="none" xmlns="http://www.w3.org/2000/svg">
<path d="M43.3115 9.69398C42.8235 7.84633 41.3856 6.39117 39.56 5.89734C36.251 5 22.9821 5 22.9821 5C22.9821 5 9.7133 5 6.40418 5.89734C4.57857 6.39125 3.14075 7.84633 2.65274 9.69398C1.76608 13.043 1.76608 20.0303 1.76608 20.0303C1.76608 20.0303 1.76608 27.0177 2.65274 30.3666C3.14075 32.2143 4.57857 33.6088 6.40418 34.1027C9.7133 35 22.9821 35 22.9821 35C22.9821 35 36.2509 35 39.56 34.1027C41.3856 33.6088 42.8235 32.2143 43.3115 30.3666C44.1981 27.0177 44.1981 20.0303 44.1981 20.0303C44.1981 20.0303 44.1981 13.043 43.3115 9.69398ZM18.6424 26.3743V13.6863L29.7326 20.0305L18.6424 26.3743Z" fill="#FFFCE2"/>
</svg>
