<svg width="144" height="100" viewBox="0 0 144 100" fill="none" xmlns="http://www.w3.org/2000/svg">
<path d="M71.4249 80.9102C69.9365 80.8476 68.6686 80.2529 67.6213 79.1262C66.5739 77.9369 66.0226 76.4972 65.9675 74.8071V42.3202C66.2983 38.5645 68.1174 36.5301 71.4249 36.2172C72.9684 36.2172 74.2914 36.8118 75.3939 38.0011C76.5516 39.1278 77.1304 40.5675 77.1304 42.3202V74.8071C77.0752 76.5598 76.4964 78.0308 75.3939 79.2201C74.2914 80.3468 72.9684 80.9102 71.4249 80.9102ZM78.3707 93.1162C78.3707 94.8689 77.7092 96.3712 76.3862 97.6231C75.0632 98.875 73.4645 99.5009 71.5903 99.5009C69.716 99.5009 68.1174 98.875 66.7944 97.6231C65.4714 96.3712 64.8099 94.8689 64.8099 93.1162C64.8099 91.301 65.4714 89.7674 66.7944 88.5155C68.1174 87.2636 69.716 86.6376 71.5903 86.6376C73.4645 86.6376 75.0632 87.2636 76.3862 88.5155C77.7092 89.7674 78.3707 91.301 78.3707 93.1162Z" fill="#FF4DEF"/>
<path d="M45.8335 89.0449H11.9315L70.695 9.94012L131.719 89.0449H93.3099" stroke="#FF4DEF" stroke-width="12"/>
</svg>
