<svg width="32" height="30" viewBox="0 0 32 30" fill="none" xmlns="http://www.w3.org/2000/svg">
<path d="M4.18867 22.5001H28.0845C28.6195 22.5001 29.0532 22.9198 29.0532 23.4376C29.0532 23.9122 28.6888 24.3045 28.2159 24.3665L28.0845 24.3751H4.18867C3.65364 24.3751 3.21992 23.9554 3.21992 23.4376C3.21992 22.963 3.58437 22.5707 4.05722 22.5087L4.18867 22.5001H28.0845H4.18867ZM4.18867 14.3789H28.0845C28.6195 14.3789 29.0532 14.7986 29.0532 15.3164C29.0532 15.791 28.6888 16.1832 28.2159 16.2453L28.0845 16.2539H4.18867C3.65364 16.2539 3.21992 15.8341 3.21992 15.3164C3.21992 14.8417 3.58437 14.4495 4.05722 14.3874L4.18867 14.3789H28.0845H4.18867ZM4.18756 6.25415H28.0834C28.6184 6.25415 29.0521 6.67388 29.0521 7.19165C29.0521 7.66627 28.6877 8.05851 28.2148 8.12059L28.0834 8.12915H4.18756C3.65253 8.12915 3.21881 7.70942 3.21881 7.19165C3.21881 6.71703 3.58326 6.32479 4.05611 6.26271L4.18756 6.25415H28.0834H4.18756Z" fill="white"/>
</svg>
