<svg width="164" height="142" viewBox="0 0 164 142" fill="none" xmlns="http://www.w3.org/2000/svg">
<path d="M83.7822 30.9648L137.92 124.733L139.651 127.733H24.4492L26.1807 124.733L80.3184 30.9648L82.0508 27.9648L83.7822 30.9648Z" stroke="#E5F200" stroke-width="4"/>
<path d="M82.0605 15.9824L88.9785 27.9648L102.513 51.4072L106.513 58.3349L99.584 62.3339L118.653 95.3622L125.581 91.3632L129.581 98.291L143.116 121.733L150.044 133.733H101.079V125.733H62.8623V133.733H13.877L20.8311 121.725L34.4053 98.2822L38.4141 91.3593L45.3369 95.3681L64.4668 62.33L57.5439 58.3212L61.5527 51.3984L75.127 27.956L82.0605 15.9824Z" stroke="#E5F200" stroke-width="16" stroke-linecap="square" stroke-dasharray="44 44"/>
<path d="M82.8037 103.673C81.4854 103.624 80.3623 103.16 79.4346 102.281C78.5068 101.354 78.0186 100.231 77.9697 98.9122V73.5704C78.2627 70.6407 79.874 69.0538 82.8037 68.8097C84.1709 68.8097 85.3428 69.2736 86.3193 70.2013C87.3447 71.0802 87.8574 72.2032 87.8574 73.5704V98.9122C87.8086 100.279 87.2959 101.427 86.3193 102.355C85.3428 103.234 84.1709 103.673 82.8037 103.673ZM88.9561 113.194C88.9561 114.562 88.3701 115.734 87.1982 116.71C86.0264 117.687 84.6104 118.175 82.9502 118.175C81.29 118.175 79.874 117.687 78.7021 116.71C77.5303 115.734 76.9443 114.562 76.9443 113.194C76.9443 111.778 77.5303 110.582 78.7021 109.606C79.874 108.629 81.29 108.141 82.9502 108.141C84.6104 108.141 86.0264 108.629 87.1982 109.606C88.3701 110.582 88.9561 111.778 88.9561 113.194Z" fill="#E5F200"/>
</svg>
