<svg width="1544" height="785" viewBox="0 0 1544 785" fill="none" xmlns="http://www.w3.org/2000/svg">
<path d="M2 4.5H27.6954V333.401L45.6821 348.818V443.891L27.6954 459.308V598.063L2 582.646V4.5Z" fill="#00FFFF" stroke="#00FFFF" stroke-width="4"/>
<path d="M245 4.5L217.975 36.5H46V4.5H245Z" stroke="#00FFFF" stroke-width="9"/>
<path d="M1530.87 279.44L1541.15 266.593V600.633L1530.87 590.354V279.44Z" fill="#00FFFF" stroke="#00FFFF"/>
<path d="M1140.3 731.679L1101.76 780.5H1538.58V731.679H1140.3Z" stroke="#00FFFF" stroke-width="9"/>
<path d="M230.689 53.321H45.6821V325.692L61.0993 341.109V456.738L45.6821 469.586V711.122H438.821L505.629 777.93L675.219 777.93L1078.64 777.93L1132.6 711.122H1538.58V618.619L1518.03 598.063V274.301L1538.58 246.036V7.06934H1104.5L1055.68 53.321L490.212 53.321L438.821 7.06934H266.662L230.689 53.321Z" stroke="#00FFFF" stroke-width="9"/>
<path d="M425.974 731.679L474.795 780.5H45.6821V731.679H425.974Z" stroke="#00FFFF" stroke-width="9"/>
</svg>
